<svg fill="none" height="24" viewBox="0 0 24 24" width="24" xmlns="http://www.w3.org/2000/svg"><g stroke="#292d32" stroke-linecap="round" stroke-linejoin="round" stroke-width="1.5"><path d="m12 22c5.5228 0 10-4.4772 10-10 0-5.52285-4.4772-10-10-10-5.52285 0-10 4.47715-10 10 0 5.5228 4.47715 10 10 10z"/><path d="m7.99998 3h1c-1.95 5.84-1.95 12.16 0 18h-1"/><path d="m15 3c1.95 5.84 1.95 12.16 0 18"/><path d="m3 16v-1c5.84 1.95 12.16 1.95 18 0v1"/><path d="m3 9.0001c5.84-1.95 12.16-1.95 18 0"/></g></svg>